<svg width="162" height="353" viewBox="0 0 162 353" fill="none" xmlns="http://www.w3.org/2000/svg">
<path d="M68.7434 4.22452L69.2763 20.7442C66.6705 31.1447 66.0993 36.9791 66.079 47.389L63.4145 98.5469C57.3683 120.103 56.6347 132.587 54.3553 155.567L22.3816 174.218V264.81H35.1711V312.238H44.2303V318.632H116.171V312.238H126.829V264.81H138.553V174.218L107.112 155.567C105.493 133.233 104.204 120.757 98.5855 98.5469L96.454 47.389C96.8552 36.827 93.2566 21.8099 93.2566 21.2771C93.2566 20.7443 93.7895 4.22452 93.7895 4.22452C84.0088 -0.0576017 78.5243 -0.0920415 68.7434 4.22452Z" stroke="black"/>
<rect x="44.1974" y="319.132" width="72.5395" height="33.1053" fill="white" stroke="black"/>
<rect x="50.5922" y="306.343" width="59.75" height="9.6579" fill="white" stroke="black"/>
<path d="M22.9144 261.08V231.771L49.0263 249.356C60.8952 259.786 64.0156 267.972 66.6118 286.659V302.646H49.5592V274.935H37.8355V261.08H22.9144Z" stroke="black"/>
<path d="M137.487 261.613V232.303L111.375 249.889C99.5061 260.319 96.3856 268.505 93.7894 287.192V303.178H110.842V275.468H122.566V261.613H137.487Z" stroke="black"/>
<path d="M5.86182 43.1257V18.0797L68.7434 4.22443V20.7442H53.2894L5.86182 43.1257Z" stroke="black"/>
<path d="M94.3223 4.22443V20.7442H108.71L155.605 43.6586V18.0797L94.3223 4.22443Z" stroke="black"/>
<rect x="0.5" y="264.777" width="35.2368" height="52.2895" rx="5.5" fill="white" stroke="black"/>
<rect x="126.263" y="264.777" width="35.2368" height="52.2895" rx="2.5" fill="white" stroke="black"/>
<rect x="132.658" y="49.4876" width="28.8421" height="52.2895" rx="2.5" fill="white" stroke="black"/>
<rect x="0.5" y="49.4876" width="28.8421" height="52.2895" rx="2.5" fill="white" stroke="black"/>
<rect x="38.8684" y="277.567" width="6.46053" height="25.6447" fill="white" stroke="black"/>
<rect x="115.605" y="278.632" width="6.46053" height="25.6447" fill="white" stroke="black"/>
<rect x="122" y="62.2771" width="6.46053" height="25.6447" fill="white" stroke="black"/>
<rect x="33.5394" y="62.2771" width="6.46053" height="25.6447" fill="white" stroke="black"/>
<rect x="23.9474" y="183.777" width="21.3816" height="45.8947" fill="white" stroke="black"/>
<rect x="115.605" y="183.777" width="21.3816" height="45.8947" fill="white" stroke="black"/>
<rect x="71.9078" y="226.409" width="17.1184" height="45.8947" fill="white" stroke="black"/>
<path d="M90.0592 223.244H71.4079H69.8092L60.2171 216.849L57.5526 181.678H69.8092L73.0066 175.817H87.9276L91.125 182.744H103.382L99.6513 216.849L90.0592 223.244Z" stroke="black"/>
<line y1="-0.5" x2="25.2662" y2="-0.5" transform="matrix(-0.885832 0.464007 0.464007 0.885832 121.5 85.2245)" stroke="black"/>
<line y1="-0.5" x2="24.3504" y2="-0.5" transform="matrix(-0.919145 0.393919 0.393919 0.919145 121.5 77.7639)" stroke="black"/>
<line y1="-0.5" x2="23.4716" y2="-0.5" transform="matrix(-0.998969 -0.0454077 -0.0454077 0.998969 121.5 74.5666)" stroke="black"/>
<line y1="-0.5" x2="24.8811" y2="-0.5" transform="matrix(-0.985212 -0.171341 -0.171341 0.985212 121.5 66.0403)" stroke="black"/>
<line x1="40.732" y1="83.7158" x2="63.1136" y2="95.4395" stroke="black"/>
<line x1="40.697" y1="76.2386" x2="63.0785" y2="85.8307" stroke="black"/>
<line x1="40.4773" y1="73.0013" x2="63.9247" y2="71.9355" stroke="black"/>
<line x1="40.4143" y1="64.4819" x2="64.9275" y2="60.2187" stroke="black"/>
</svg>
